<?xml version="1.0" encoding="utf-8"?>
<!-- Generator: Adobe Illustrator 16.0.0, SVG Export Plug-In . SVG Version: 6.00 Build 0)  -->
<!DOCTYPE svg PUBLIC "-//W3C//DTD SVG 1.1//EN" "http://www.w3.org/Graphics/SVG/1.1/DTD/svg11.dtd">
<svg version="1.1" xmlns="http://www.w3.org/2000/svg" xmlns:xlink="http://www.w3.org/1999/xlink" x="0px" y="0px" width="1980px"
	 height="1024px" viewBox="0 0 1980 1024" enable-background="new 0 0 1980 1024" xml:space="preserve">
<g id="Fondo">
	<g id="layer2" inkscape:label="Fondo" sodipodi:insensitive="true" inkscape:groupmode="layer">
		<rect id="rect4870" x="0" y="-0.005" fill="#D5E5FF" width="1980.504" height="1024.286"/>
	</g>
</g>
<g id="Content" xmlns:dc="http://purl.org/dc/elements/1.1/" xmlns:cc="http://creativecommons.org/ns#" xmlns:rdf="http://www.w3.org/1999/02/22-rdf-syntax-ns#" xmlns:svg="http://www.w3.org/2000/svg" xmlns:sodipodi="http://sodipodi.sourceforge.net/DTD/sodipodi-0.dtd" xmlns:inkscape="http://www.inkscape.org/namespaces/inkscape" sodipodi:docname="html-css.svg" inkscape:version="0.92.3 (2405546, 2018-03-11)">
	
		<sodipodi:namedview  units="px" guidetolerance="10000" showguides="true" showgrid="false" inkscape:cy="546.93704" inkscape:cx="1013.9729" inkscape:zoom="0.71060606" borderopacity="1.0" bordercolor="#666666" pagecolor="#ffffff" id="base" inkscape:window-maximized="1" inkscape:window-y="-8" inkscape:window-x="-8" inkscape:window-height="1017" inkscape:window-width="1920" inkscape:snap-global="false" inkscape:current-layer="layer1" inkscape:document-units="px" inkscape:pageopacity="0.0" inkscape:snap-page="true" inkscape:guide-bbox="true" inkscape:pageshadow="2">
		<sodipodi:guide  inkscape:locked="false" orientation="1,0" position="24.054257,237.33535" id="guide4897"></sodipodi:guide>
		
			<sodipodi:guide  inkscape:color="rgb(0,0,255)" inkscape:label="" inkscape:locked="false" orientation="1,0" position="358.32256,265.64299" id="guide4922">
			</sodipodi:guide>
	</sodipodi:namedview>
	<text transform="matrix(1 0 0 1 90.1272 162.9629)" fill="#0044AA" font-family="'Consolas-Bold'" font-size="24">Bloques de formación:</text>
	<rect x="91.5" y="197.632" fill="#FFCC00" width="380.837" height="310.467"/>
	<text transform="matrix(1 0 0 1 117.1272 241.9629)" fill="#0044AA" font-family="'Consolas-Bold'" font-size="24">HTML5</text>
	<text transform="matrix(1 0 0 1 117.1272 480.2246)" fill="#0044AA" font-family="'Consolas'" font-size="16">Desarrollo de estructuras semánticas</text>
	<rect x="532.337" y="197.632" fill="#FFCC00" width="380.837" height="310.467"/>
	<text transform="matrix(1 0 0 1 557.9636 241.9629)" fill="#0044AA" font-family="'Consolas-Bold'" font-size="24">CSS3</text>
	<text transform="matrix(1 0 0 1 557.9636 480.2246)" fill="#0044AA" font-family="'Consolas'" font-size="16">Metodología BEM + ITCSS</text>
	<rect x="973.173" y="197.632" fill="#FFCC00" width="380.837" height="310.467"/>
	<text transform="matrix(1 0 0 1 998.7991 241.9629)" fill="#0044AA" font-family="'Consolas-Bold'" font-size="24">ACCESIBILIDAD</text>
	<text transform="matrix(1 0 0 1 998.7991 272.6416)" fill="#0044AA" font-family="'Consolas'" font-size="16">Metodología BEM + ITCSS</text>
	<g>
		<defs>
			<rect id="SVGID_1_" x="117.127" y="260.146" width="335.21" height="186.548"/>
		</defs>
		<clipPath id="SVGID_2_">
			<use xlink:href="#SVGID_1_"  overflow="visible"/>
		</clipPath>
		<g clip-path="url(#SVGID_2_)">
			<title>HTML5 Logo</title>
			<path d="M227.188,260.146h8.33v8.258h7.678v-8.258h8.331v24.99h-8.331v-8.33h-7.605v8.33h-8.403 M262.537,268.477h-7.353v-8.33
				h23.071v8.33h-7.389v16.66h-8.33 M281.914,260.146h8.729l5.36,8.801l5.36-8.801h8.729v24.99h-8.33V272.75l-5.832,8.982
				l-5.831-8.982v12.387h-8.185 M314.221,260.146h8.33v16.732h11.807v8.258h-20.137"/>
			<path fill="#E44D26" d="M226.899,430.734l-11.952-134.152h131.4l-11.952,134.08l-53.856,14.922"/>
			<path fill="#F16529" d="M280.646,434.175V307.593h53.712l-10.25,114.449"/>
			<path fill="#EBEBEB" d="M239.358,323.999h41.289v16.443h-23.252l1.521,16.842h21.731v16.406h-36.797 M244.573,381.948h16.516
				l1.159,13.147l18.399,4.926v17.167l-33.755-9.417"/>
			<path fill="#FFFFFF" d="M321.79,323.999h-41.216v16.443h39.695 M318.784,357.284h-38.21v16.442h20.282l-1.919,21.369
				l-18.363,4.926v17.095l33.683-9.345"/>
		</g>
	</g>
	<g>
		<defs>
			<rect id="SVGID_3_" x="555.15" y="260.146" width="335.21" height="186.548"/>
		</defs>
		<clipPath id="SVGID_4_">
			<use xlink:href="#SVGID_3_"  overflow="visible"/>
		</clipPath>
		<g clip-path="url(#SVGID_4_)">
			
				<sodipodi:namedview  units="px" guidetolerance="10" showgrid="false" inkscape:cy="279.60949" inkscape:cx="354.74292" inkscape:zoom="0.52149125" borderopacity="1" bordercolor="#666666" pagecolor="#ffffff" id="namedview3809" inkscape:window-maximized="1" inkscape:window-y="-8" inkscape:window-x="-8" inkscape:window-height="1017" inkscape:window-width="1920" inkscape:current-layer="svg3807" inkscape:pageopacity="0" inkscape:pageshadow="2" gridtolerance="10" objecttolerance="10">
				</sodipodi:namedview>
			<g id="g3829" transform="matrix(1.0650138,0,0,1.0650138,74.015759,-34.119651)">
				<g id="_x23_000000ff" transform="translate(0,32)">
					<path id="path3784" inkscape:connector-curvature="0" d="M568.879,243.494c7.714-0.096,15.428-0.03,23.142-0.033
						c0.019,2.413,0.055,4.827-0.033,7.24c-5.345-0.037-10.686,0-16.027,0.033c-0.037,3.505-0.106,7.009-0.073,10.513
						c5.363,0.033,10.73,0.085,16.093,0.063c0.063,1.983,0.04,3.975-0.018,5.962c-7.692-0.051-15.384-0.029-23.076-0.022
						C568.904,259.33,568.92,251.413,568.879,243.494z"/>
					<path id="path3786" inkscape:connector-curvature="0" d="M594.773,243.468c7.81-0.015,15.619-0.063,23.433,0.026
						c-0.03,2.281-0.007,4.558-0.007,6.84c-5.683-0.018-11.37,0.007-17.052,0.073c0.007,0.897,0.007,1.793,0,2.689
						c5.675,0.092,11.347,0.103,17.019,0.136c0.022,4.676,0.01,9.348,0.041,14.021c-7.814-0.015-15.627-0.007-23.44,0.029
						c-0.041-1.888-0.044-3.772,0.011-5.661c5.415,0.015,10.833,0.022,16.247-0.022c0.034-1.215,0.048-2.435,0.044-3.65
						c-5.44,0-10.884,0.018-16.324-0.019C594.743,253.11,594.743,248.288,594.773,243.468L594.773,243.468z"/>
					<path id="path3788" inkscape:connector-curvature="0" d="M620.821,243.508c7.795,0,15.594,0,23.389,0
						c0.033,2.292,0.066,4.584-0.007,6.873c-5.708-0.003-11.417,0.029-17.126,0.04c0.016,0.937,0.037,1.873,0.085,2.81
						c5.675-0.026,11.35,0.044,17.022,0.103c0.051,4.654,0.089,9.308,0.022,13.963c-7.813-0.023-15.627-0.023-23.439,0.014
						c-0.048-1.881-0.063-3.769,0.018-5.649c5.403,0.04,10.811,0.033,16.219-0.019c0.014-1.219,0.04-2.439,0.029-3.655
						c-5.426,0.051-10.855,0.022-16.285,0.004C620.747,253.165,620.784,248.334,620.821,243.508L620.821,243.508z"/>
				</g>
				<g id="_x23_0170baff" transform="translate(0,32)">
					<path id="path3791" inkscape:connector-curvature="0" fill="#0170BA" d="M543.764,277.105c41.847-0.004,83.691-0.007,125.538,0
						c-2.303,26.026-4.57,52.052-6.968,78.07c-1.425,16.63-2.895,33.259-4.445,49.877c-8.93,2.366-17.772,5.062-26.698,7.439
						c-8.199,2.406-16.464,4.584-24.667,6.972h-0.243c-7.806-2.321-15.689-4.364-23.495-6.685
						c-9.213-2.483-18.344-5.253-27.561-7.725c-1.202-12.457-2.285-24.921-3.354-37.384c-2.017-23.029-4.21-46.042-6.15-69.075
						c-0.672-6.931-1.154-13.885-1.958-20.802V277.105 M606.729,287.372c-0.088,5,0.066,10.003-0.088,14.999
						c-14.355-0.052-28.715-0.011-43.07,0.003c0.246,4.853,0.896,9.672,1.565,14.484c13.356,0.496,26.731-0.018,40.088,0.382
						c-11.685,5.242-23.513,10.179-35.25,15.311c-1.007,0.447-2.083,0.785-2.982,1.44c0.099,5.33,0.958,10.631,1.337,15.95
						c7.119-0.026,14.234-0.14,21.353-0.151c5.705-0.029,11.413,0.084,17.118-0.04c-0.271,8.765,0.085,17.541-0.183,26.305
						c-3.838-0.57-7.629-1.425-11.454-2.105c-3.016-0.657-6.105-0.999-9.076-1.862c-0.423-4.207-0.717-8.427-1.091-12.636
						c-0.86-0.265-1.77-0.238-2.66-0.254c-4.312,0.026-8.629-0.014-12.945,0.052c0.422,8.093,1.149,16.174,2.387,24.189
						c4.254,1.109,8.515,2.196,12.762,3.354c6.505,1.77,13.092,3.243,19.608,4.985c0.776,0.165,1.558,0.452,2.362,0.386
						c0.434,5.322,0.099,10.679,0.18,16.016c1.502-0.242,2.979-0.613,4.43-1.062c12.335-3.35,24.656-6.762,36.983-10.146
						c0.614-4.849,0.9-9.731,1.385-14.591c1.282-14.774,2.575-29.549,3.919-44.319c1.576-16.897,2.939-33.813,4.526-50.711
						C640.862,287.365,623.796,287.317,606.729,287.372L606.729,287.372z"/>
				</g>
				<g id="_x23_29a9dfff" transform="translate(0,32)">
					<path id="path3794" inkscape:connector-curvature="0" fill="#29A9DF" d="M606.729,287.372
						c17.066-0.055,34.133-0.006,51.204-0.022c-1.587,16.898-2.95,33.814-4.526,50.711c-1.344,14.771-2.637,29.545-3.919,44.319
						c-0.485,4.86-0.771,9.742-1.385,14.591c-12.327,3.383-24.648,6.796-36.983,10.146c-1.451,0.448-2.928,0.82-4.43,1.062
						c-0.081-5.337,0.254-10.693-0.18-16.016c0.111-0.022,0.335-0.066,0.445-0.089c11.472-2.879,22.867-6.05,34.313-9.033
						c1.447-16.236,3.052-32.465,4.07-48.735c-9.735,0.052-19.473,0.022-29.208,0.063c-1.418,0.007-2.836,0-4.246-0.103
						c5.238-2.697,10.748-4.835,16.126-7.241c5.161-2.34,10.385-4.533,15.564-6.828c0.999-0.459,2.064-0.841,2.942-1.525
						c0.345-1.267,0.327-2.593,0.464-3.89c0.297-4.114,0.826-8.207,1.024-12.324c-13.786-0.11-27.573-0.015-41.362-0.089
						C606.796,297.375,606.641,292.371,606.729,287.372L606.729,287.372z"/>
					<path id="path3796" inkscape:connector-curvature="0" fill="#29A9DF" d="M606.799,349.75
						c6.657-0.114,13.316,0.066,19.976,0.022c-0.371,6.806-0.937,13.602-1.29,20.409c-4.081,1.333-8.224,2.462-12.339,3.695
						c-2.193,0.668-4.444,1.198-6.531,2.179C606.884,367.291,606.528,358.514,606.799,349.75L606.799,349.75z"/>
				</g>
				<g id="_x23_cfcfcfff" transform="translate(0,32)">
					<path id="path3799" inkscape:connector-curvature="0" fill="#CFCFCF" d="M563.571,302.374
						c14.356-0.014,28.715-0.055,43.07-0.003c0.187,15.795-0.048,31.591,0.158,47.379c-5.704,0.125-11.413,0.011-17.118,0.04
						c-7.119,0.011-14.235,0.125-21.353,0.151c-0.379-5.319-1.238-10.62-1.337-15.95c0.9-0.655,1.976-0.992,2.982-1.44
						c11.737-5.132,23.565-10.069,35.25-15.311c-13.356-0.4-26.731,0.114-40.088-0.382
						C564.467,312.046,563.817,307.227,563.571,302.374z"/>
					<path id="path3801" inkscape:connector-curvature="0" fill="#CFCFCF" d="M569.39,359.249c4.316-0.066,8.633-0.026,12.945-0.052
						c0.889,0.015,1.8-0.011,2.66,0.254c0.375,4.21,0.668,8.43,1.091,12.636c2.971,0.863,6.061,1.205,9.076,1.862
						c3.825,0.68,7.616,1.535,11.454,2.105c0.367,5.333-0.276,10.704,0.338,16.019c-0.11,0.022-0.334,0.066-0.445,0.089
						c-0.804,0.066-1.586-0.221-2.362-0.386c-6.516-1.741-13.103-3.214-19.608-4.985c-4.246-1.158-8.507-2.245-12.762-3.354
						C570.539,375.423,569.812,367.342,569.39,359.249z"/>
				</g>
				<g id="_x23_ffffffff" transform="translate(0,32)">
					<path id="path3804" inkscape:connector-curvature="0" fill="#FFFFFF" d="M606.641,302.371
						c13.79,0.073,27.576-0.022,41.362,0.089c-0.198,4.117-0.728,8.209-1.024,12.324c-0.137,1.297-0.118,2.622-0.464,3.89
						c-0.878,0.684-1.943,1.066-2.942,1.525c-5.179,2.296-10.403,4.488-15.564,6.828c-5.378,2.406-10.888,4.544-16.126,7.241
						c1.41,0.103,2.828,0.11,4.246,0.103c9.735-0.04,19.472-0.011,29.208-0.063c-1.018,16.269-2.623,32.498-4.07,48.735
						c-11.446,2.983-22.841,6.154-34.313,9.033c-0.613-5.315,0.029-10.686-0.338-16.019c2.087-0.981,4.338-1.51,6.531-2.179
						c4.115-1.234,8.258-2.362,12.339-3.695c0.353-6.807,0.919-13.603,1.29-20.409c-6.66,0.044-13.32-0.136-19.976-0.022
						C606.593,333.961,606.829,318.166,606.641,302.371L606.641,302.371z"/>
				</g>
			</g>
		</g>
	</g>
</g>
<g id="Header">
	<rect id="rect10" x="0" y="-0.005" fill="#5599FF" width="1979.999" height="90"/>
	<text transform="matrix(1 0 0 1 90.6946 55.961)" fill="#FFDD55" font-family="'Consolas-Bold'" font-size="32">PILDORA FORMATIVA</text>
	<text transform="matrix(1 0 0 1 411.1711 55.961)" fill="#FFDD55" font-family="'Consolas-Bold'" font-size="32">HTML5 + CSS3 + ACCESIBILIDAD</text>
</g>
<g id="Aside">
	<rect id="use4920" x="1394.01" y="135.065" fill="#FFCC00" width="484.873" height="353.034"/>
	<text transform="matrix(1 0 0 1 1413.6428 173.5977)" fill="#2C5AA0" font-family="'Consolas-Bold'" font-size="24">Otros contenidos</text>
	<text transform="matrix(1 0 0 1 1413.6428 206.1153)" fill="#2C5AA0" font-family="'Consolas'" font-size="18">Suscríbete</text>
	<text transform="matrix(1 0 0 1 1413.6428 355.1094)" fill="#2C5AA0" font-family="'Consolas'" font-size="18">Déjanos tu opinión</text>
	<g id="g5267" transform="translate(0,0.03462401)">
		<circle id="path5256" fill="#FFFFFF" stroke="#3771C8" stroke-width="0.5292" cx="1422.713" cy="378.851" r="7.463"/>
		<circle id="path5263" fill="#3771C8" cx="1422.713" cy="378.851" r="1.803"/>
	</g>
	<g id="g5277" transform="translate(0,7.0246326)">
		<circle id="circle5273" fill="#FFFFFF" stroke="#3771C8" stroke-width="0.5292" cx="1422.713" cy="398.279" r="7.463"/>
		<circle id="circle5275" fill="#3771C8" cx="1422.713" cy="398.279" r="1.803"/>
	</g>
	<rect id="rect5115" x="1414.213" y="226.625" fill="#F9F9F9" stroke="#3771C8" stroke-width="0.467" width="444.973" height="40"/>
	<g id="use5125" transform="matrix(-2.7928533e-8,0,0,1,491.90957,16.559889)">
		<rect id="rect5115_1_" x="1859.186" y="289.213" fill="#F9F9F9" stroke="#3771C8" stroke-width="0.467" width="0" height="40"/>
	</g>
	<g>
		<rect id="rect5115-5" x="1415.25" y="283.104" fill="#3771C8" width="98.235" height="40"/>
		<text transform="matrix(1 0 0 1 1442.5872 307.6446)" fill="#FFD42A" font-family="'Consolas-Bold'" font-size="13">Enviar</text>
	</g>
	<text transform="matrix(1 0 0 1 1428.7288 249.8165)" fill="#2C5AA0" font-family="'Consolas'" font-size="13">Ingresa tu email</text>
	<text transform="matrix(1 0 0 1 1438.7288 382.2452)" fill="#2C5AA0" font-family="'Consolas'" font-size="13">Muy contento</text>
	<text transform="matrix(1 0 0 1 1438.7288 408.6631)" fill="#2C5AA0" font-family="'Consolas'" font-size="13">Poco contento</text>
	<g>
		<rect id="rect5283" x="1415.25" y="428.099" fill="#3771C8" width="98.235" height="40"/>
		<text transform="matrix(1 0 0 1 1442.5872 452.6431)" fill="#FFD42A" font-family="'Consolas-Bold'" font-size="13">Enviar</text>
	</g>
</g>
<g id="Nav">
	<rect id="rect4581-7-4-1" x="1612.888" y="-0.005" fill="#3771C8" width="267.143" height="90"/>
	<text transform="matrix(1 0 0 1 1632.4055 55.2051)" fill="#FFDD55" font-family="'Consolas'" font-size="32">ACCESIBILIDAD</text>
	<rect id="rect4581" x="1393.784" y="-0.005" fill="#FFCC00" width="109.961" height="90"/>
	<text transform="matrix(1 0 0 1 1413.7649 55.2051)" fill="#214478" font-family="'Consolas'" font-size="32">HTML</text>
	<rect id="rect4581-7-0" x="1504.745" y="-0.005" fill="#3771C8" width="107.143" height="90"/>
	<text transform="matrix(1 0 0 1 1523.4797 55.2051)" fill="#FFDD55" font-family="'Consolas'" font-size="32">CSS3</text>
</g>
<g id="Footer">
	<g id="layer3" inkscape:label="Footer" sodipodi:insensitive="true" inkscape:groupmode="layer">
		<rect id="rect4872" x="0" y="934.028" fill="#5599FF" width="1980" height="90"/>
		<text transform="matrix(1 0 0 1 89.1799 985.4102)" fill="#FFE680" font-family="'Consolas'" font-size="20">De 12:00 a 13:00</text>
		<text transform="matrix(1 0 0 1 1616.5315 983.9825)" enable-background="new    "><tspan x="0" y="0" fill="#FFE680" font-family="'Consolas'" font-size="20">Repositorio: </tspan><tspan x="142.949" y="0" fill="#FCD203" font-family="'Consolas'" font-size="20" text-decoration=" underline">arodribr333</tspan></text>
	</g>
</g>
</svg>
